<mxfile host="app.diagrams.net" modified="2024-06-20T06:09:40.090Z" agent="Mozilla/5.0 (Windows NT 10.0; Win64; x64) AppleWebKit/537.36 (KHTML, like Gecko) Chrome/126.0.0.0 Safari/537.36" etag="65QFdqhQHFIzsaolnZb7" version="24.5.5" type="github">
  <diagram name="Page-1" id="B2VvSjPYqP0Dd8WSLtDL">
    <mxGraphModel dx="989" dy="509" grid="1" gridSize="10" guides="1" tooltips="1" connect="1" arrows="1" fold="1" page="1" pageScale="1" pageWidth="850" pageHeight="1100" math="0" shadow="0">
      <root>
        <mxCell id="0" />
        <mxCell id="1" parent="0" />
        <mxCell id="H23mw5haXismM71pRZtm-1" value="&lt;div&gt;0&lt;/div&gt;-----Start-----&lt;div&gt;currenttile =0&lt;/div&gt;&lt;div&gt;savedtile=0&lt;/div&gt;" style="ellipse;whiteSpace=wrap;html=1;aspect=fixed;" vertex="1" parent="1">
          <mxGeometry x="40" y="40" width="80" height="80" as="geometry" />
        </mxCell>
      </root>
    </mxGraphModel>
  </diagram>
</mxfile>
